<?xml version="1.0" encoding="UTF-8"?>
<svg version="1.1" xmlns="http://www.w3.org/2000/svg" width="1024" height="1024">
<path d="M0 0 C337.92 0 675.84 0 1024 0 C1024 337.92 1024 675.84 1024 1024 C686.08 1024 348.16 1024 0 1024 C0 686.08 0 348.16 0 0 Z " fill="#FAF8F7" transform="translate(0,0)"/>
<path d="M0 0 C3.36411736 2.95853506 6.62350621 6.01478748 9.83886719 9.13378906 C11.197096 10.44482594 12.57897765 11.73124105 13.96289062 13.01513672 C31.25321463 29.46003478 43.28046406 51.52641865 50.12695312 74.24560547 C50.41928833 75.20527222 50.41928833 75.20527222 50.7175293 76.18432617 C54.12670591 88.17278812 54.58746685 100.01704474 54.43945312 112.37060547 C54.42938964 113.85302121 54.42026983 115.33544366 54.41210938 116.81787109 C54.39039388 120.39809221 54.35605559 123.97805355 54.31445312 127.55810547 C16.48734645 142.64561033 -21.67537955 156.44745175 -61.68554688 164.55810547 C-62.43427063 164.7104364 -63.18299438 164.86276733 -63.95440674 165.01971436 C-109.90231523 174.34499505 -155.99467572 180.57127172 -202.93554688 180.68310547 C-204.07568741 180.68725967 -204.07568741 180.68725967 -205.23886108 180.6914978 C-210.38938479 180.70521137 -215.5359659 180.65398105 -220.68554688 180.55810547 C-221.43543884 180.54884033 -222.18533081 180.5395752 -222.95794678 180.5300293 C-225.16298887 180.49469455 -227.36448922 180.42597915 -229.56835938 180.34716797 C-230.8511377 180.31059082 -232.13391602 180.27401367 -233.45556641 180.23632812 C-236.68554688 179.55810547 -236.68554688 179.55810547 -238.86694336 177.33959961 C-240.65789689 174.19899464 -241.68405409 171.00606725 -242.68554688 167.55810547 C-243.20630791 165.95739727 -243.72853468 164.35716544 -244.25195312 162.75732422 C-251.61857628 139.39145424 -254.62008693 114.78221117 -249.68554688 90.55810547 C-249.55664062 89.90712891 -249.42773438 89.25615234 -249.29492188 88.58544922 C-243.55797759 60.16632704 -230.4760793 34.75182421 -210.13232422 14.04443359 C-208.75612721 12.63061527 -207.41692126 11.18106657 -206.08007812 9.72998047 C-153.47465127 -45.97924616 -57.6976715 -49.35724911 0 0 Z " fill="#262B34" transform="translate(609.685546875,278.44189453125)"/>
<path d="M0 0 C2.5327831 2.22288063 4.94925301 4.51604842 7.3359375 6.89453125 C7.96242188 7.4978125 8.58890625 8.10109375 9.234375 8.72265625 C25.4365242 25.58462148 27.89621764 48.18381847 27.6171875 70.375 C27.40899934 78.7972522 26.23293918 85.97984691 23.3359375 93.89453125 C22.96210938 94.9721875 22.58828125 96.04984375 22.203125 97.16015625 C15.84566064 113.91691661 3.2315047 127.66767919 -12.7890625 135.58203125 C-32.94731434 144.03729799 -56.21142127 145.33481844 -76.64160156 137.09716797 C-91.32615437 130.95135916 -101.98064633 122.02210291 -109.6640625 107.89453125 C-110.12296875 107.0953125 -110.581875 106.29609375 -111.0546875 105.47265625 C-121.35600477 86.48348103 -122.78135391 61.07082865 -117.69921875 40.26953125 C-111.59657547 20.37261128 -101.32784052 4.25399717 -82.953125 -6.41796875 C-58.130347 -19.15364583 -22.20048903 -17.54554778 0 0 Z " fill="#252933" transform="translate(384.6640625,639.10546875)"/>
<path d="M0 0 C9.57 0 19.14 0 29 0 C29.495 26.235 29.495 26.235 30 53 C32.64 50.36 35.28 47.72 38 45 C41.30078125 42.94140625 41.30078125 42.94140625 44.3125 41.5625 C45.31925781 41.08941406 46.32601562 40.61632812 47.36328125 40.12890625 C56.79706838 36.08984776 71.26434284 36.3178601 80.84765625 39.97265625 C81.55792969 40.31167969 82.26820313 40.65070312 83 41 C83.82371094 41.39058594 84.64742187 41.78117188 85.49609375 42.18359375 C98.37957887 49.10577069 105.69943908 60.85790751 109.8347168 74.57958984 C114.83108098 92.91690114 112.81766488 112.49610214 103.7578125 129.25 C96.1372101 141.17200909 86.35606787 147.89853034 73 152 C72.37222656 152.1959375 71.74445313 152.391875 71.09765625 152.59375 C59.69587612 154.80191598 49.13631643 152.87008785 39.41015625 146.796875 C35.63288976 143.9807606 32.92196568 140.6842176 30 137 C29.67 141.29 29.34 145.58 29 150 C19.43 150 9.86 150 0 150 C0 100.5 0 51 0 0 Z " fill="#252932" transform="translate(510,628)"/>
<path d="M0 0 C24.21536823 1.46301183 53.76304676 5.40835433 72 23 C74.37782219 26.18409522 76.28740783 29.41912547 78 33 C78.33 33.66 78.66 34.32 79 35 C80.19176863 48.44158718 76.37967231 57.66291389 68 68 C52.62792374 85.63596386 30.91292303 97.10768851 10.05322266 107.02294922 C8.67979194 107.6765128 7.30966254 108.33705772 5.94287109 109.00439453 C-41.16006767 131.9208047 -94.53070228 146.15315975 -146 155 C-147.14871582 155.19819336 -148.29743164 155.39638672 -149.48095703 155.60058594 C-162.28342793 157.7824699 -175.0939326 159.56517829 -188 161 C-189.94229492 161.2175293 -189.94229492 161.2175293 -191.92382812 161.43945312 C-246.92505488 167.30958911 -329.80075929 174.62121647 -376.6640625 138.03125 C-383.58911637 132.00946402 -389.15094079 125.46860571 -390.37890625 116.11328125 C-390.86459902 103.876957 -385.97330052 95.88453486 -378 87 C-377.319375 86.236875 -376.63875 85.47375 -375.9375 84.6875 C-362.42243622 70.37743247 -343.00830779 60.49584385 -325 53 C-324.67 53 -324.34 53 -324 53 C-324 59.27 -324 65.54 -324 72 C-325.52109375 72.76183594 -327.0421875 73.52367187 -328.609375 74.30859375 C-353.85438913 86.23303398 -353.85438913 86.23303398 -371 107 C-371.72821253 112.14348006 -372.02357585 116.52860971 -369 120.875 C-368.01 121.57625 -367.02 122.2775 -366 123 C-365.44183594 123.40476562 -364.88367188 123.80953125 -364.30859375 124.2265625 C-343.04098891 138.7009658 -313.01075604 141.23209795 -288 143 C-287.19949219 143.05784668 -286.39898437 143.11569336 -285.57421875 143.17529297 C-279.71921215 143.57896261 -273.86614395 143.8284939 -268 144 C-267.0826709 144.02868164 -266.1653418 144.05736328 -265.22021484 144.08691406 C-178.62789736 146.39370654 -85.44933054 128.03867717 8 86 C8.93295898 85.54238281 9.86591797 85.08476562 10.82714844 84.61328125 C29.46604068 75.40028779 50.32374156 64.35251688 60 45 C60.42003544 41.30368809 60.14835168 39.30288468 58.5 35.9375 C46.34994417 21.6611844 22.13358624 20.7889382 5 18 C4.16112944 15.56427941 3.32873471 13.12666783 2.5 10.6875 C2.14228516 9.65206055 2.14228516 9.65206055 1.77734375 8.59570312 C0.76791737 5.61068511 0 3.17341086 0 0 Z " fill="#252932" transform="translate(668,332)"/>
<path d="M0 0 C-13.94061149 21.9258244 -13.94061149 21.9258244 -21 30 C-21.680625 30.80050781 -22.36125 31.60101563 -23.0625 32.42578125 C-49.36837101 62.63055814 -86.13264817 80.59175722 -126 84 C-163.85674387 86.04843984 -200.95450085 74.00121074 -231 51 C-232.05316406 50.20980469 -233.10632813 49.41960938 -234.19140625 48.60546875 C-239.13128337 44.79235081 -239.13128337 44.79235081 -241 43 C-241 42.34 -241 41.68 -241 41 C-240.02804687 40.98541748 -239.05609375 40.97083496 -238.0546875 40.95581055 C-204.59067188 40.41952576 -171.14768516 38.85588107 -138 34 C-137.03271973 33.86513184 -136.06543945 33.73026367 -135.06884766 33.59130859 C-99.26828661 28.56961527 -64.35820746 18.48407461 -29.97265625 7.5234375 C-28.64788773 7.10136269 -28.64788773 7.10136269 -27.2963562 6.67076111 C-23.07200785 5.32079127 -18.85313367 3.95605254 -14.640625 2.56958008 C-13.13671928 2.08154135 -11.63281305 1.59350415 -10.12890625 1.10546875 C-9.10543846 0.76115311 -9.10543846 0.76115311 -8.06129456 0.40988159 C-3.3385797 -1.1128599 -3.3385797 -1.1128599 0 0 Z " fill="#262A33" transform="translate(648,470)"/>
<path d="M0 0 C1.07507813 0.40025391 1.07507813 0.40025391 2.171875 0.80859375 C13.69420526 5.83286567 19.53604067 16.52435482 24.1015625 27.6953125 C29.40818374 44.70625721 27.03421023 65.66485947 19.5625 81.625 C14.59339926 90.59033536 7.22467823 97.37682334 -2.5 100.9375 C-13.96178517 103.8573535 -28.03057205 103.47316278 -38.421875 97.640625 C-50.06127316 90.26139872 -57.16701709 79.65587888 -60.6875 66.4140625 C-64.24702794 49.55574265 -62.63398987 30.60797761 -53.62109375 15.72265625 C-41.08785977 -2.06975493 -20.18022053 -7.51875959 0 0 Z " fill="#FAF9F8" transform="translate(356,654)"/>
<path d="M0 0 C9.24 0 18.48 0 28 0 C28 8.91 28 17.82 28 27 C35.92 27 43.84 27 52 27 C52 33.93 52 40.86 52 48 C44.08 48 36.16 48 28 48 C28.09710527 55.68664835 28.1999465 63.37277915 28.31738281 71.05908203 C28.35558418 73.67199066 28.39045224 76.28495028 28.421875 78.89794922 C28.46771733 82.6613178 28.52568103 86.42433793 28.5859375 90.1875 C28.59748871 91.34926758 28.60903992 92.51103516 28.62094116 93.70800781 C28.58421542 103.83937726 28.58421542 103.83937726 32.4375 112.9375 C36.24562338 115.5270239 40.2937372 115.11542562 44.6875 115.0625 C47.100625 115.041875 49.51375 115.02125 52 115 C52 122.26 52 129.52 52 137 C38.22058606 139.72185954 23.95565698 141.64271032 11.6875 133.45703125 C4.66917954 127.8191525 1.45209827 120.80819956 0 112 C-0.27130983 107.07299556 -0.2335519 102.1512257 -0.1953125 97.21875 C-0.19157606 95.79529012 -0.18873207 94.37182764 -0.18673706 92.94836426 C-0.17915025 89.22640716 -0.15954519 85.50460953 -0.1373291 81.78271484 C-0.11676314 77.97495683 -0.1077125 74.16717271 -0.09765625 70.359375 C-0.07629387 62.90616936 -0.04115301 55.45312746 0 48 C-5.28 48 -10.56 48 -16 48 C-16 41.07 -16 34.14 -16 27 C-10.72 27 -5.44 27 0 27 C0 18.09 0 9.18 0 0 Z " fill="#242831" transform="translate(700,641)"/>
<path d="M0 0 C0 8.25 0 16.5 0 25 C-1.93875 25.103125 -3.8775 25.20625 -5.875 25.3125 C-15.78422454 26.10781737 -24.44179263 28.22146532 -32 35 C-37.8293407 42.7849334 -37.73626112 51.33673279 -37.70703125 60.6328125 C-37.72017172 62.12069705 -37.73548309 63.60856385 -37.75285339 65.09640503 C-37.79244275 68.97946726 -37.80287678 72.86206011 -37.80688477 76.74530029 C-37.81792031 81.42209133 -37.86579488 86.09863795 -37.90737152 90.77523804 C-37.96620904 97.85036708 -37.97874558 104.92420943 -38 112 C-47.57 112 -57.14 112 -67 112 C-67 75.7 -67 39.4 -67 2 C-57.76 2 -48.52 2 -39 2 C-38.67 6.95 -38.34 11.9 -38 17 C-36.68 15.02 -35.36 13.04 -34 11 C-24.50313482 0.60197243 -13.28356169 -0.12299594 0 0 Z " fill="#242831" transform="translate(497,666)"/>
<path d="M0 0 C9.07740422 5.5441108 14.87513812 13.15360646 17.52734375 23.4765625 C19.34452646 33.17821566 17.52526733 42.77236636 12.64453125 51.39453125 C11.20686242 53.41035108 9.70206917 55.20337144 8 57 C7.23042969 57.82951172 7.23042969 57.82951172 6.4453125 58.67578125 C-0.25007781 65.13090636 -8.31509171 67.21702497 -17.4375 67.5625 C-26.84231083 67.28504373 -35.54028297 64.34722072 -42.47265625 57.8046875 C-49.70944459 49.25380204 -53.41285516 39.5885937 -53.20703125 28.41796875 C-52.38751321 18.84661649 -47.98787875 10.82230601 -41.1171875 4.1796875 C-29.0882921 -5.5116088 -13.79883025 -7.197538 0 0 Z " fill="#262A34" transform="translate(702,236)"/>
<path d="M0 0 C9.57 0 19.14 0 29 0 C29 36.3 29 72.6 29 110 C19.43 110 9.86 110 0 110 C0 73.7 0 37.4 0 0 Z " fill="#242831" transform="translate(639,668)"/>
<path d="M0 0 C7.95211192 4.11805796 11.14977019 8.60376959 14.5 16.8125 C15.93027575 21.62782533 15.72352111 26.45284878 15.75 31.4375 C15.770625 32.38496094 15.79125 33.33242188 15.8125 34.30859375 C15.87002705 44.82166243 13.34781519 53.69775882 6.5 61.8125 C1.24589691 66.76464314 -4.61863674 68.7955672 -11.8125 69.1875 C-19.56362811 68.93703838 -25.58900725 66.22818288 -30.9375 60.625 C-37.96778636 52.71409322 -38.04630989 43.09722979 -38.0625 33 C-38.09923828 31.80568359 -38.13597656 30.61136719 -38.17382812 29.38085938 C-38.21645183 20.68088762 -36.4319913 14.05297683 -31.5 6.8125 C-22.99691494 -1.49999021 -11.40562987 -3.88276762 0 0 Z " fill="#FAF9F7" transform="translate(576.5,690.1875)"/>
<path d="M0 0 C3.6654257 1.24895987 6.27718538 3.23055217 8.9375 6.0625 C10.91871876 11.53998715 11.00138893 17.52288001 8.8125 22.9375 C5.41037555 26.808883 2.20948923 29.62708792 -3.05078125 30.23828125 C-8.57364901 30.41951525 -11.70071475 29.79936836 -16 26 C-19.34306453 22.12908317 -20.61782203 19.20611402 -20.3203125 14.01953125 C-19.55938011 9.22194534 -17.98693345 5.91471881 -14.4375 2.625 C-9.67078797 -0.55280802 -5.64574235 -0.60852313 0 0 Z " fill="#242831" transform="translate(658,624)"/>
<path d="M0 0 C0 0.99 0 1.98 0 3 C-18.48 3 -36.96 3 -56 3 C-56 2.67 -56 2.34 -56 2 C-37.31857946 0.76268907 -18.73370271 -0.36415405 0 0 Z " fill="#353841" transform="translate(443,493)"/>
<path d="M0 0 C5.61 0 11.22 0 17 0 C17 0.33 17 0.66 17 1 C19.97 1.33 22.94 1.66 26 2 C26 2.33 26 2.66 26 3 C18.08 3.33 10.16 3.66 2 4 C1.34 2.68 0.68 1.36 0 0 Z " fill="#34373F" transform="translate(407,511)"/>
<path d="M0 0 C0.33 0 0.66 0 1 0 C1.08126087 2.08268593 1.13930839 4.16628658 1.1875 6.25 C1.22230469 7.41015625 1.25710938 8.5703125 1.29296875 9.765625 C1 13 1 13 -2 17 C-2 12.38 -2 7.76 -2 3 C-2.99 2.67 -3.98 2.34 -5 2 C-3.68 2 -2.36 2 -1 2 C-0.67 1.34 -0.34 0.68 0 0 Z " fill="#2F323B" transform="translate(751,756)"/>
<path d="M0 0 C2.33294775 -0.04241723 4.66702567 -0.04092937 7 0 C7.33 0.33 7.66 0.66 8 1 C10.67058851 1.14115161 13.32432238 1.04247107 16 1 C15.67 1.99 15.34 2.98 15 4 C8.07 3.505 8.07 3.505 1 3 C0.67 2.01 0.34 1.02 0 0 Z " fill="#33363E" transform="translate(365,491)"/>
<path d="M0 0 C1.75570313 0.04060547 1.75570313 0.04060547 3.546875 0.08203125 C4.43890625 0.11683594 5.3309375 0.15164063 6.25 0.1875 C6.25 0.8475 6.25 1.5075 6.25 2.1875 C3.18466836 3.72016582 -0.01754272 3.29026471 -3.375 3.25 C-4.08140625 3.24548828 -4.7878125 3.24097656 -5.515625 3.23632812 C-7.26045275 3.22453875 -9.005237 3.20660324 -10.75 3.1875 C-7.26391463 -0.10012011 -4.6928191 -0.14078457 0 0 Z " fill="#343841" transform="translate(433.75,475.8125)"/>
<path d="M0 0 C0.33 0 0.66 0 1 0 C1.21824777 6.0018137 0.5056904 11.19233704 -1 17 C-1.33 17 -1.66 17 -2 17 C-2.05398987 14.72942623 -2.09278742 12.45848712 -2.125 10.1875 C-2.14820313 8.92292969 -2.17140625 7.65835938 -2.1953125 6.35546875 C-2 3 -2 3 0 0 Z " fill="#EFEFEF" transform="translate(296,695)"/>
<path d="M0 0 C4.75207471 -0.43200679 7.78210698 1.01510917 12 3 C12 3.66 12 4.32 12 5 C8.37 4.34 4.74 3.68 1 3 C0.67 2.01 0.34 1.02 0 0 Z " fill="#F2F2F2" transform="translate(688,332)"/>
<path d="M0 0 C1.45742463 -0.08096803 2.91612807 -0.13917774 4.375 -0.1875 C5.18710937 -0.22230469 5.99921875 -0.25710937 6.8359375 -0.29296875 C7.55007813 -0.19628906 8.26421875 -0.09960938 9 0 C9.66 0.99 10.32 1.98 11 3 C7.04 3 3.08 3 -1 3 C-0.67 2.01 -0.34 1.02 0 0 Z " fill="#373A43" transform="translate(516,244)"/>
<path d="M0 0 C-1.98 2.97 -1.98 2.97 -4 6 C-4.99 5.01 -5.98 4.02 -7 3 C-6.67 2.01 -6.34 1.02 -6 0 C-3 -1 -3 -1 0 0 Z " fill="#20232A" transform="translate(648,470)"/>
<path d="M0 0 C0 0.99 0 1.98 0 3 C-1.4370809 3.05422947 -2.87475462 3.09289723 -4.3125 3.125 C-5.11300781 3.14820313 -5.91351563 3.17140625 -6.73828125 3.1953125 C-9 3 -9 3 -12 1 C-7.915021 0.45533613 -4.1274515 0 0 0 Z " fill="#303239" transform="translate(500,470)"/>
<path d="M0 0 C3.63 0.33 7.26 0.66 11 1 C11 1.33 11 1.66 11 2 C8.36 2 5.72 2 3 2 C2.67 2.99 2.34 3.98 2 5 C1.34 4.34 0.68 3.68 0 3 C0 2.01 0 1.02 0 0 Z " fill="#121319" transform="translate(668,332)"/>
<path d="M0 0 C0 0.66 0 1.32 0 2 C-3.375 2.625 -3.375 2.625 -7 3 C-7.66 2.34 -8.32 1.68 -9 1 C-6.04335481 -0.4783226 -3.25770263 -0.06032783 0 0 Z " fill="#21232A" transform="translate(545,499)"/>
</svg>
